<mxfile host="app.diagrams.net" modified="2023-09-20T09:13:55.458Z" agent="Mozilla/5.0 (Windows NT 10.0; Win64; x64) AppleWebKit/537.36 (KHTML, like Gecko) Chrome/116.0.0.0 Safari/537.36" version="21.7.5" etag="h4gjUM5J0W2gbYTnrwGB" type="github">
  <diagram name="第 1 页" id="PnAwfZJ6zAuA6VsayDwi">
    <mxGraphModel>
      <root>
        <mxCell id="0" />
        <mxCell id="1" parent="0" />
      </root>
    </mxGraphModel>
  </diagram>
</mxfile>
